<?xml version="1.0" standalone="no"?>
<!DOCTYPE svg PUBLIC "-//W3C//DTD SVG 20010904//EN"
 "http://www.w3.org/TR/2001/REC-SVG-20010904/DTD/svg10.dtd">
<svg version="1.0" xmlns="http://www.w3.org/2000/svg"
 width="256.000000pt" height="256.000000pt" viewBox="0 0 256.000000 256.000000"
 preserveAspectRatio="xMidYMid meet">
<metadata>
Created by potrace 1.11, written by Peter Selinger 2001-2013
</metadata>
<g transform="translate(0.000000,256.000000) scale(0.100000,-0.100000)"
fill="#000000" stroke="none">
<path d="M1190 2320 c-173 -36 -402 -132 -559 -233 -232 -151 -378 -446 -386
-782 -5 -231 60 -449 192 -647 77 -115 196 -215 348 -290 67 -34 227 -90 290
-102 17 -4 41 -8 54 -11 48 -9 168 -18 236 -18 399 2 725 208 895 565 150 317
105 674 -124 979 -60 80 -95 106 -210 159 -159 73 -326 113 -326 77 0 -11 72
-59 115 -76 27 -11 165 -120 207 -164 106 -111 159 -216 194 -387 7 -38 7
-193 -1 -242 -11 -66 -12 -70 -30 -123 -91 -265 -346 -499 -608 -558 -85 -19
-250 -20 -339 -1 -175 37 -315 112 -444 239 -159 158 -208 279 -208 520 -1
271 114 507 307 629 117 74 232 102 461 112 98 4 127 9 165 28 90 46 137 114
118 170 -6 17 -13 33 -16 36 -4 3 -14 17 -23 31 -10 15 -38 44 -64 65 -40 33
-53 38 -103 40 -31 1 -94 -7 -141 -16z"/>
</g>
</svg>
